<mxfile host="app.diagrams.net" modified="2022-03-11T08:57:50.980Z" agent="5.0 (Windows NT 10.0; Win64; x64) AppleWebKit/537.36 (KHTML, like Gecko) Chrome/99.0.4844.51 Safari/537.36" etag="t6ZI6qYvX0csLYO_VV3v" version="17.1.1" type="github">
  <diagram id="eo4gdUsSSaBdQeNLNhcw" name="第 1 页">
    <mxGraphModel dx="1038" dy="585" grid="1" gridSize="10" guides="1" tooltips="1" connect="1" arrows="1" fold="1" page="1" pageScale="1" pageWidth="827" pageHeight="1169" math="0" shadow="0">
      <root>
        <mxCell id="0" />
        <mxCell id="1" parent="0" />
        <mxCell id="ue7PwExwSNuFaeKi3OIJ-1" value="金融机构" style="rounded=1;whiteSpace=wrap;html=1;" vertex="1" parent="1">
          <mxGeometry x="200" y="100" width="120" height="60" as="geometry" />
        </mxCell>
        <mxCell id="ue7PwExwSNuFaeKi3OIJ-2" value="融资企业" style="rounded=1;whiteSpace=wrap;html=1;" vertex="1" parent="1">
          <mxGeometry y="280" width="120" height="60" as="geometry" />
        </mxCell>
        <mxCell id="ue7PwExwSNuFaeKi3OIJ-3" value="第三方仓库" style="rounded=1;whiteSpace=wrap;html=1;" vertex="1" parent="1">
          <mxGeometry x="400" y="280" width="120" height="60" as="geometry" />
        </mxCell>
        <mxCell id="ue7PwExwSNuFaeKi3OIJ-4" value="" style="endArrow=classic;html=1;rounded=0;exitX=0.25;exitY=0;exitDx=0;exitDy=0;entryX=0;entryY=0.25;entryDx=0;entryDy=0;" edge="1" parent="1" source="ue7PwExwSNuFaeKi3OIJ-2" target="ue7PwExwSNuFaeKi3OIJ-1">
          <mxGeometry relative="1" as="geometry">
            <mxPoint x="120" y="410" as="sourcePoint" />
            <mxPoint x="220" y="410" as="targetPoint" />
          </mxGeometry>
        </mxCell>
        <mxCell id="ue7PwExwSNuFaeKi3OIJ-5" value="①申请融资" style="edgeLabel;resizable=0;html=1;align=center;verticalAlign=middle;" connectable="0" vertex="1" parent="ue7PwExwSNuFaeKi3OIJ-4">
          <mxGeometry relative="1" as="geometry" />
        </mxCell>
        <mxCell id="ue7PwExwSNuFaeKi3OIJ-6" value="" style="endArrow=classic;html=1;rounded=0;exitX=1;exitY=0.25;exitDx=0;exitDy=0;entryX=0.75;entryY=0;entryDx=0;entryDy=0;" edge="1" parent="1" source="ue7PwExwSNuFaeKi3OIJ-1" target="ue7PwExwSNuFaeKi3OIJ-3">
          <mxGeometry relative="1" as="geometry">
            <mxPoint x="350" y="140" as="sourcePoint" />
            <mxPoint x="450" y="140" as="targetPoint" />
          </mxGeometry>
        </mxCell>
        <mxCell id="ue7PwExwSNuFaeKi3OIJ-7" value="③委托监管" style="edgeLabel;resizable=0;html=1;align=center;verticalAlign=middle;" connectable="0" vertex="1" parent="ue7PwExwSNuFaeKi3OIJ-6">
          <mxGeometry relative="1" as="geometry" />
        </mxCell>
        <mxCell id="ue7PwExwSNuFaeKi3OIJ-8" value="" style="endArrow=classic;html=1;rounded=0;exitX=1;exitY=0.75;exitDx=0;exitDy=0;entryX=0;entryY=0.75;entryDx=0;entryDy=0;" edge="1" parent="1" source="ue7PwExwSNuFaeKi3OIJ-2" target="ue7PwExwSNuFaeKi3OIJ-3">
          <mxGeometry relative="1" as="geometry">
            <mxPoint x="220" y="460" as="sourcePoint" />
            <mxPoint x="320" y="460" as="targetPoint" />
          </mxGeometry>
        </mxCell>
        <mxCell id="ue7PwExwSNuFaeKi3OIJ-9" value="②提供抵押物" style="edgeLabel;resizable=0;html=1;align=center;verticalAlign=middle;" connectable="0" vertex="1" parent="ue7PwExwSNuFaeKi3OIJ-8">
          <mxGeometry relative="1" as="geometry" />
        </mxCell>
        <mxCell id="ue7PwExwSNuFaeKi3OIJ-10" value="" style="endArrow=classic;html=1;rounded=0;exitX=0;exitY=0.75;exitDx=0;exitDy=0;entryX=0.5;entryY=0;entryDx=0;entryDy=0;" edge="1" parent="1" source="ue7PwExwSNuFaeKi3OIJ-1" target="ue7PwExwSNuFaeKi3OIJ-2">
          <mxGeometry relative="1" as="geometry">
            <mxPoint x="190" y="230" as="sourcePoint" />
            <mxPoint x="290" y="230" as="targetPoint" />
          </mxGeometry>
        </mxCell>
        <mxCell id="ue7PwExwSNuFaeKi3OIJ-11" value="④信用贷款" style="edgeLabel;resizable=0;html=1;align=center;verticalAlign=middle;" connectable="0" vertex="1" parent="ue7PwExwSNuFaeKi3OIJ-10">
          <mxGeometry relative="1" as="geometry" />
        </mxCell>
        <mxCell id="ue7PwExwSNuFaeKi3OIJ-12" value="" style="endArrow=classic;html=1;rounded=0;exitX=1;exitY=0.25;exitDx=0;exitDy=0;entryX=0.403;entryY=1.043;entryDx=0;entryDy=0;entryPerimeter=0;" edge="1" parent="1" source="ue7PwExwSNuFaeKi3OIJ-2" target="ue7PwExwSNuFaeKi3OIJ-1">
          <mxGeometry relative="1" as="geometry">
            <mxPoint x="80" y="390" as="sourcePoint" />
            <mxPoint x="180" y="390" as="targetPoint" />
          </mxGeometry>
        </mxCell>
        <mxCell id="ue7PwExwSNuFaeKi3OIJ-13" value="⑤追加保证金" style="edgeLabel;resizable=0;html=1;align=center;verticalAlign=middle;" connectable="0" vertex="1" parent="ue7PwExwSNuFaeKi3OIJ-12">
          <mxGeometry relative="1" as="geometry" />
        </mxCell>
        <mxCell id="ue7PwExwSNuFaeKi3OIJ-15" value="" style="endArrow=classic;html=1;rounded=0;exitX=1;exitY=1;exitDx=0;exitDy=0;entryX=0.25;entryY=0;entryDx=0;entryDy=0;" edge="1" parent="1" source="ue7PwExwSNuFaeKi3OIJ-1" target="ue7PwExwSNuFaeKi3OIJ-3">
          <mxGeometry relative="1" as="geometry">
            <mxPoint x="290" y="270" as="sourcePoint" />
            <mxPoint x="390" y="270" as="targetPoint" />
          </mxGeometry>
        </mxCell>
        <mxCell id="ue7PwExwSNuFaeKi3OIJ-16" value="⑥通知发货" style="edgeLabel;resizable=0;html=1;align=center;verticalAlign=middle;" connectable="0" vertex="1" parent="ue7PwExwSNuFaeKi3OIJ-15">
          <mxGeometry relative="1" as="geometry" />
        </mxCell>
        <mxCell id="ue7PwExwSNuFaeKi3OIJ-17" value="" style="endArrow=classic;html=1;rounded=0;exitX=0;exitY=0.25;exitDx=0;exitDy=0;entryX=1;entryY=0.25;entryDx=0;entryDy=0;" edge="1" parent="1" source="ue7PwExwSNuFaeKi3OIJ-3" target="ue7PwExwSNuFaeKi3OIJ-2">
          <mxGeometry relative="1" as="geometry">
            <mxPoint x="130" y="390" as="sourcePoint" />
            <mxPoint x="230" y="390" as="targetPoint" />
          </mxGeometry>
        </mxCell>
        <mxCell id="ue7PwExwSNuFaeKi3OIJ-18" value="⑦发货" style="edgeLabel;resizable=0;html=1;align=center;verticalAlign=middle;" connectable="0" vertex="1" parent="ue7PwExwSNuFaeKi3OIJ-17">
          <mxGeometry relative="1" as="geometry" />
        </mxCell>
      </root>
    </mxGraphModel>
  </diagram>
</mxfile>
